<mxfile host="app.diagrams.net" modified="2023-06-09T23:54:54.646Z" agent="Mozilla/5.0 (X11; Linux x86_64; rv:109.0) Gecko/20100101 Firefox/112.0" version="21.3.8" etag="t9MU5i1AO8lNAGOu85sW" type="github">
  <diagram name="PÃ¡gina-1" id="16yRk0e_-oQ4DHRg5e_R">
    <mxGraphModel>
      <root>
        <mxCell id="0" />
        <mxCell id="1" parent="0" />
      </root>
    </mxGraphModel>
  </diagram>
</mxfile>
